<svg xmlns="http://www.w3.org/2000/svg" viewBox="0 0 296 296" role="img" aria-label="QR code for https://webrefurb.com/menus/_drafts/qr-ae059831/"><rect width="100%" height="100%" fill="#fff"/><g fill="#111"><rect x="16" y="16" width="8" height="8"/><rect x="24" y="16" width="8" height="8"/><rect x="32" y="16" width="8" height="8"/><rect x="40" y="16" width="8" height="8"/><rect x="48" y="16" width="8" height="8"/><rect x="56" y="16" width="8" height="8"/><rect x="64" y="16" width="8" height="8"/><rect x="96" y="16" width="8" height="8"/><rect x="112" y="16" width="8" height="8"/><rect x="120" y="16" width="8" height="8"/><rect x="128" y="16" width="8" height="8"/><rect x="136" y="16" width="8" height="8"/><rect x="152" y="16" width="8" height="8"/><rect x="160" y="16" width="8" height="8"/><rect x="168" y="16" width="8" height="8"/><rect x="176" y="16" width="8" height="8"/><rect x="184" y="16" width="8" height="8"/><rect x="192" y="16" width="8" height="8"/><rect x="200" y="16" width="8" height="8"/><rect x="224" y="16" width="8" height="8"/><rect x="232" y="16" width="8" height="8"/><rect x="240" y="16" width="8" height="8"/><rect x="248" y="16" width="8" height="8"/><rect x="256" y="16" width="8" height="8"/><rect x="264" y="16" width="8" height="8"/><rect x="272" y="16" width="8" height="8"/><rect x="16" y="24" width="8" height="8"/><rect x="64" y="24" width="8" height="8"/><rect x="88" y="24" width="8" height="8"/><rect x="104" y="24" width="8" height="8"/><rect x="120" y="24" width="8" height="8"/><rect x="128" y="24" width="8" height="8"/><rect x="136" y="24" width="8" height="8"/><rect x="160" y="24" width="8" height="8"/><rect x="176" y="24" width="8" height="8"/><rect x="184" y="24" width="8" height="8"/><rect x="192" y="24" width="8" height="8"/><rect x="200" y="24" width="8" height="8"/><rect x="208" y="24" width="8" height="8"/><rect x="224" y="24" width="8" height="8"/><rect x="272" y="24" width="8" height="8"/><rect x="16" y="32" width="8" height="8"/><rect x="32" y="32" width="8" height="8"/><rect x="40" y="32" width="8" height="8"/><rect x="48" y="32" width="8" height="8"/><rect x="64" y="32" width="8" height="8"/><rect x="96" y="32" width="8" height="8"/><rect x="112" y="32" width="8" height="8"/><rect x="120" y="32" width="8" height="8"/><rect x="136" y="32" width="8" height="8"/><rect x="160" y="32" width="8" height="8"/><rect x="176" y="32" width="8" height="8"/><rect x="192" y="32" width="8" height="8"/><rect x="200" y="32" width="8" height="8"/><rect x="224" y="32" width="8" height="8"/><rect x="240" y="32" width="8" height="8"/><rect x="248" y="32" width="8" height="8"/><rect x="256" y="32" width="8" height="8"/><rect x="272" y="32" width="8" height="8"/><rect x="16" y="40" width="8" height="8"/><rect x="32" y="40" width="8" height="8"/><rect x="40" y="40" width="8" height="8"/><rect x="48" y="40" width="8" height="8"/><rect x="64" y="40" width="8" height="8"/><rect x="88" y="40" width="8" height="8"/><rect x="120" y="40" width="8" height="8"/><rect x="128" y="40" width="8" height="8"/><rect x="144" y="40" width="8" height="8"/><rect x="152" y="40" width="8" height="8"/><rect x="160" y="40" width="8" height="8"/><rect x="176" y="40" width="8" height="8"/><rect x="200" y="40" width="8" height="8"/><rect x="208" y="40" width="8" height="8"/><rect x="224" y="40" width="8" height="8"/><rect x="240" y="40" width="8" height="8"/><rect x="248" y="40" width="8" height="8"/><rect x="256" y="40" width="8" height="8"/><rect x="272" y="40" width="8" height="8"/><rect x="16" y="48" width="8" height="8"/><rect x="32" y="48" width="8" height="8"/><rect x="40" y="48" width="8" height="8"/><rect x="48" y="48" width="8" height="8"/><rect x="64" y="48" width="8" height="8"/><rect x="88" y="48" width="8" height="8"/><rect x="104" y="48" width="8" height="8"/><rect x="112" y="48" width="8" height="8"/><rect x="120" y="48" width="8" height="8"/><rect x="128" y="48" width="8" height="8"/><rect x="152" y="48" width="8" height="8"/><rect x="160" y="48" width="8" height="8"/><rect x="168" y="48" width="8" height="8"/><rect x="176" y="48" width="8" height="8"/><rect x="192" y="48" width="8" height="8"/><rect x="200" y="48" width="8" height="8"/><rect x="208" y="48" width="8" height="8"/><rect x="224" y="48" width="8" height="8"/><rect x="240" y="48" width="8" height="8"/><rect x="248" y="48" width="8" height="8"/><rect x="256" y="48" width="8" height="8"/><rect x="272" y="48" width="8" height="8"/><rect x="16" y="56" width="8" height="8"/><rect x="64" y="56" width="8" height="8"/><rect x="80" y="56" width="8" height="8"/><rect x="104" y="56" width="8" height="8"/><rect x="120" y="56" width="8" height="8"/><rect x="136" y="56" width="8" height="8"/><rect x="144" y="56" width="8" height="8"/><rect x="152" y="56" width="8" height="8"/><rect x="160" y="56" width="8" height="8"/><rect x="168" y="56" width="8" height="8"/><rect x="192" y="56" width="8" height="8"/><rect x="208" y="56" width="8" height="8"/><rect x="224" y="56" width="8" height="8"/><rect x="272" y="56" width="8" height="8"/><rect x="16" y="64" width="8" height="8"/><rect x="24" y="64" width="8" height="8"/><rect x="32" y="64" width="8" height="8"/><rect x="40" y="64" width="8" height="8"/><rect x="48" y="64" width="8" height="8"/><rect x="56" y="64" width="8" height="8"/><rect x="64" y="64" width="8" height="8"/><rect x="80" y="64" width="8" height="8"/><rect x="96" y="64" width="8" height="8"/><rect x="112" y="64" width="8" height="8"/><rect x="128" y="64" width="8" height="8"/><rect x="144" y="64" width="8" height="8"/><rect x="160" y="64" width="8" height="8"/><rect x="176" y="64" width="8" height="8"/><rect x="192" y="64" width="8" height="8"/><rect x="208" y="64" width="8" height="8"/><rect x="224" y="64" width="8" height="8"/><rect x="232" y="64" width="8" height="8"/><rect x="240" y="64" width="8" height="8"/><rect x="248" y="64" width="8" height="8"/><rect x="256" y="64" width="8" height="8"/><rect x="264" y="64" width="8" height="8"/><rect x="272" y="64" width="8" height="8"/><rect x="88" y="72" width="8" height="8"/><rect x="96" y="72" width="8" height="8"/><rect x="112" y="72" width="8" height="8"/><rect x="136" y="72" width="8" height="8"/><rect x="144" y="72" width="8" height="8"/><rect x="152" y="72" width="8" height="8"/><rect x="160" y="72" width="8" height="8"/><rect x="184" y="72" width="8" height="8"/><rect x="192" y="72" width="8" height="8"/><rect x="200" y="72" width="8" height="8"/><rect x="16" y="80" width="8" height="8"/><rect x="40" y="80" width="8" height="8"/><rect x="56" y="80" width="8" height="8"/><rect x="64" y="80" width="8" height="8"/><rect x="80" y="80" width="8" height="8"/><rect x="96" y="80" width="8" height="8"/><rect x="104" y="80" width="8" height="8"/><rect x="120" y="80" width="8" height="8"/><rect x="128" y="80" width="8" height="8"/><rect x="184" y="80" width="8" height="8"/><rect x="208" y="80" width="8" height="8"/><rect x="216" y="80" width="8" height="8"/><rect x="232" y="80" width="8" height="8"/><rect x="16" y="88" width="8" height="8"/><rect x="24" y="88" width="8" height="8"/><rect x="56" y="88" width="8" height="8"/><rect x="96" y="88" width="8" height="8"/><rect x="120" y="88" width="8" height="8"/><rect x="128" y="88" width="8" height="8"/><rect x="136" y="88" width="8" height="8"/><rect x="144" y="88" width="8" height="8"/><rect x="152" y="88" width="8" height="8"/><rect x="176" y="88" width="8" height="8"/><rect x="184" y="88" width="8" height="8"/><rect x="192" y="88" width="8" height="8"/><rect x="208" y="88" width="8" height="8"/><rect x="216" y="88" width="8" height="8"/><rect x="224" y="88" width="8" height="8"/><rect x="232" y="88" width="8" height="8"/><rect x="272" y="88" width="8" height="8"/><rect x="40" y="96" width="8" height="8"/><rect x="48" y="96" width="8" height="8"/><rect x="64" y="96" width="8" height="8"/><rect x="72" y="96" width="8" height="8"/><rect x="80" y="96" width="8" height="8"/><rect x="88" y="96" width="8" height="8"/><rect x="96" y="96" width="8" height="8"/><rect x="104" y="96" width="8" height="8"/><rect x="112" y="96" width="8" height="8"/><rect x="120" y="96" width="8" height="8"/><rect x="128" y="96" width="8" height="8"/><rect x="144" y="96" width="8" height="8"/><rect x="160" y="96" width="8" height="8"/><rect x="168" y="96" width="8" height="8"/><rect x="184" y="96" width="8" height="8"/><rect x="208" y="96" width="8" height="8"/><rect x="232" y="96" width="8" height="8"/><rect x="240" y="96" width="8" height="8"/><rect x="256" y="96" width="8" height="8"/><rect x="272" y="96" width="8" height="8"/><rect x="24" y="104" width="8" height="8"/><rect x="32" y="104" width="8" height="8"/><rect x="40" y="104" width="8" height="8"/><rect x="72" y="104" width="8" height="8"/><rect x="80" y="104" width="8" height="8"/><rect x="88" y="104" width="8" height="8"/><rect x="96" y="104" width="8" height="8"/><rect x="112" y="104" width="8" height="8"/><rect x="120" y="104" width="8" height="8"/><rect x="144" y="104" width="8" height="8"/><rect x="160" y="104" width="8" height="8"/><rect x="184" y="104" width="8" height="8"/><rect x="192" y="104" width="8" height="8"/><rect x="200" y="104" width="8" height="8"/><rect x="224" y="104" width="8" height="8"/><rect x="240" y="104" width="8" height="8"/><rect x="248" y="104" width="8" height="8"/><rect x="264" y="104" width="8" height="8"/><rect x="32" y="112" width="8" height="8"/><rect x="40" y="112" width="8" height="8"/><rect x="64" y="112" width="8" height="8"/><rect x="72" y="112" width="8" height="8"/><rect x="88" y="112" width="8" height="8"/><rect x="96" y="112" width="8" height="8"/><rect x="128" y="112" width="8" height="8"/><rect x="136" y="112" width="8" height="8"/><rect x="144" y="112" width="8" height="8"/><rect x="160" y="112" width="8" height="8"/><rect x="168" y="112" width="8" height="8"/><rect x="176" y="112" width="8" height="8"/><rect x="184" y="112" width="8" height="8"/><rect x="192" y="112" width="8" height="8"/><rect x="216" y="112" width="8" height="8"/><rect x="224" y="112" width="8" height="8"/><rect x="248" y="112" width="8" height="8"/><rect x="264" y="112" width="8" height="8"/><rect x="272" y="112" width="8" height="8"/><rect x="16" y="120" width="8" height="8"/><rect x="24" y="120" width="8" height="8"/><rect x="48" y="120" width="8" height="8"/><rect x="56" y="120" width="8" height="8"/><rect x="72" y="120" width="8" height="8"/><rect x="88" y="120" width="8" height="8"/><rect x="96" y="120" width="8" height="8"/><rect x="120" y="120" width="8" height="8"/><rect x="128" y="120" width="8" height="8"/><rect x="136" y="120" width="8" height="8"/><rect x="160" y="120" width="8" height="8"/><rect x="176" y="120" width="8" height="8"/><rect x="184" y="120" width="8" height="8"/><rect x="224" y="120" width="8" height="8"/><rect x="232" y="120" width="8" height="8"/><rect x="240" y="120" width="8" height="8"/><rect x="264" y="120" width="8" height="8"/><rect x="272" y="120" width="8" height="8"/><rect x="24" y="128" width="8" height="8"/><rect x="32" y="128" width="8" height="8"/><rect x="48" y="128" width="8" height="8"/><rect x="56" y="128" width="8" height="8"/><rect x="64" y="128" width="8" height="8"/><rect x="96" y="128" width="8" height="8"/><rect x="104" y="128" width="8" height="8"/><rect x="112" y="128" width="8" height="8"/><rect x="120" y="128" width="8" height="8"/><rect x="136" y="128" width="8" height="8"/><rect x="144" y="128" width="8" height="8"/><rect x="152" y="128" width="8" height="8"/><rect x="168" y="128" width="8" height="8"/><rect x="200" y="128" width="8" height="8"/><rect x="216" y="128" width="8" height="8"/><rect x="224" y="128" width="8" height="8"/><rect x="248" y="128" width="8" height="8"/><rect x="256" y="128" width="8" height="8"/><rect x="264" y="128" width="8" height="8"/><rect x="16" y="136" width="8" height="8"/><rect x="24" y="136" width="8" height="8"/><rect x="40" y="136" width="8" height="8"/><rect x="56" y="136" width="8" height="8"/><rect x="72" y="136" width="8" height="8"/><rect x="96" y="136" width="8" height="8"/><rect x="104" y="136" width="8" height="8"/><rect x="128" y="136" width="8" height="8"/><rect x="144" y="136" width="8" height="8"/><rect x="152" y="136" width="8" height="8"/><rect x="160" y="136" width="8" height="8"/><rect x="176" y="136" width="8" height="8"/><rect x="184" y="136" width="8" height="8"/><rect x="192" y="136" width="8" height="8"/><rect x="200" y="136" width="8" height="8"/><rect x="208" y="136" width="8" height="8"/><rect x="224" y="136" width="8" height="8"/><rect x="232" y="136" width="8" height="8"/><rect x="264" y="136" width="8" height="8"/><rect x="16" y="144" width="8" height="8"/><rect x="40" y="144" width="8" height="8"/><rect x="56" y="144" width="8" height="8"/><rect x="64" y="144" width="8" height="8"/><rect x="112" y="144" width="8" height="8"/><rect x="136" y="144" width="8" height="8"/><rect x="152" y="144" width="8" height="8"/><rect x="176" y="144" width="8" height="8"/><rect x="184" y="144" width="8" height="8"/><rect x="192" y="144" width="8" height="8"/><rect x="224" y="144" width="8" height="8"/><rect x="240" y="144" width="8" height="8"/><rect x="248" y="144" width="8" height="8"/><rect x="264" y="144" width="8" height="8"/><rect x="16" y="152" width="8" height="8"/><rect x="32" y="152" width="8" height="8"/><rect x="48" y="152" width="8" height="8"/><rect x="80" y="152" width="8" height="8"/><rect x="88" y="152" width="8" height="8"/><rect x="96" y="152" width="8" height="8"/><rect x="120" y="152" width="8" height="8"/><rect x="152" y="152" width="8" height="8"/><rect x="184" y="152" width="8" height="8"/><rect x="192" y="152" width="8" height="8"/><rect x="200" y="152" width="8" height="8"/><rect x="208" y="152" width="8" height="8"/><rect x="232" y="152" width="8" height="8"/><rect x="248" y="152" width="8" height="8"/><rect x="264" y="152" width="8" height="8"/><rect x="16" y="160" width="8" height="8"/><rect x="32" y="160" width="8" height="8"/><rect x="48" y="160" width="8" height="8"/><rect x="64" y="160" width="8" height="8"/><rect x="72" y="160" width="8" height="8"/><rect x="96" y="160" width="8" height="8"/><rect x="104" y="160" width="8" height="8"/><rect x="112" y="160" width="8" height="8"/><rect x="120" y="160" width="8" height="8"/><rect x="152" y="160" width="8" height="8"/><rect x="192" y="160" width="8" height="8"/><rect x="208" y="160" width="8" height="8"/><rect x="224" y="160" width="8" height="8"/><rect x="256" y="160" width="8" height="8"/><rect x="264" y="160" width="8" height="8"/><rect x="272" y="160" width="8" height="8"/><rect x="16" y="168" width="8" height="8"/><rect x="40" y="168" width="8" height="8"/><rect x="72" y="168" width="8" height="8"/><rect x="112" y="168" width="8" height="8"/><rect x="120" y="168" width="8" height="8"/><rect x="128" y="168" width="8" height="8"/><rect x="144" y="168" width="8" height="8"/><rect x="168" y="168" width="8" height="8"/><rect x="184" y="168" width="8" height="8"/><rect x="216" y="168" width="8" height="8"/><rect x="232" y="168" width="8" height="8"/><rect x="264" y="168" width="8" height="8"/><rect x="16" y="176" width="8" height="8"/><rect x="24" y="176" width="8" height="8"/><rect x="32" y="176" width="8" height="8"/><rect x="64" y="176" width="8" height="8"/><rect x="72" y="176" width="8" height="8"/><rect x="80" y="176" width="8" height="8"/><rect x="88" y="176" width="8" height="8"/><rect x="112" y="176" width="8" height="8"/><rect x="152" y="176" width="8" height="8"/><rect x="176" y="176" width="8" height="8"/><rect x="184" y="176" width="8" height="8"/><rect x="192" y="176" width="8" height="8"/><rect x="200" y="176" width="8" height="8"/><rect x="216" y="176" width="8" height="8"/><rect x="232" y="176" width="8" height="8"/><rect x="24" y="184" width="8" height="8"/><rect x="56" y="184" width="8" height="8"/><rect x="72" y="184" width="8" height="8"/><rect x="88" y="184" width="8" height="8"/><rect x="104" y="184" width="8" height="8"/><rect x="112" y="184" width="8" height="8"/><rect x="136" y="184" width="8" height="8"/><rect x="152" y="184" width="8" height="8"/><rect x="168" y="184" width="8" height="8"/><rect x="184" y="184" width="8" height="8"/><rect x="216" y="184" width="8" height="8"/><rect x="224" y="184" width="8" height="8"/><rect x="248" y="184" width="8" height="8"/><rect x="264" y="184" width="8" height="8"/><rect x="272" y="184" width="8" height="8"/><rect x="16" y="192" width="8" height="8"/><rect x="24" y="192" width="8" height="8"/><rect x="64" y="192" width="8" height="8"/><rect x="80" y="192" width="8" height="8"/><rect x="88" y="192" width="8" height="8"/><rect x="96" y="192" width="8" height="8"/><rect x="144" y="192" width="8" height="8"/><rect x="168" y="192" width="8" height="8"/><rect x="184" y="192" width="8" height="8"/><rect x="208" y="192" width="8" height="8"/><rect x="224" y="192" width="8" height="8"/><rect x="232" y="192" width="8" height="8"/><rect x="248" y="192" width="8" height="8"/><rect x="272" y="192" width="8" height="8"/><rect x="24" y="200" width="8" height="8"/><rect x="40" y="200" width="8" height="8"/><rect x="48" y="200" width="8" height="8"/><rect x="56" y="200" width="8" height="8"/><rect x="72" y="200" width="8" height="8"/><rect x="80" y="200" width="8" height="8"/><rect x="104" y="200" width="8" height="8"/><rect x="136" y="200" width="8" height="8"/><rect x="160" y="200" width="8" height="8"/><rect x="168" y="200" width="8" height="8"/><rect x="176" y="200" width="8" height="8"/><rect x="184" y="200" width="8" height="8"/><rect x="232" y="200" width="8" height="8"/><rect x="264" y="200" width="8" height="8"/><rect x="272" y="200" width="8" height="8"/><rect x="16" y="208" width="8" height="8"/><rect x="32" y="208" width="8" height="8"/><rect x="40" y="208" width="8" height="8"/><rect x="56" y="208" width="8" height="8"/><rect x="64" y="208" width="8" height="8"/><rect x="88" y="208" width="8" height="8"/><rect x="112" y="208" width="8" height="8"/><rect x="120" y="208" width="8" height="8"/><rect x="152" y="208" width="8" height="8"/><rect x="176" y="208" width="8" height="8"/><rect x="184" y="208" width="8" height="8"/><rect x="208" y="208" width="8" height="8"/><rect x="216" y="208" width="8" height="8"/><rect x="224" y="208" width="8" height="8"/><rect x="232" y="208" width="8" height="8"/><rect x="240" y="208" width="8" height="8"/><rect x="272" y="208" width="8" height="8"/><rect x="80" y="216" width="8" height="8"/><rect x="88" y="216" width="8" height="8"/><rect x="96" y="216" width="8" height="8"/><rect x="104" y="216" width="8" height="8"/><rect x="112" y="216" width="8" height="8"/><rect x="128" y="216" width="8" height="8"/><rect x="152" y="216" width="8" height="8"/><rect x="168" y="216" width="8" height="8"/><rect x="176" y="216" width="8" height="8"/><rect x="192" y="216" width="8" height="8"/><rect x="200" y="216" width="8" height="8"/><rect x="208" y="216" width="8" height="8"/><rect x="240" y="216" width="8" height="8"/><rect x="248" y="216" width="8" height="8"/><rect x="272" y="216" width="8" height="8"/><rect x="16" y="224" width="8" height="8"/><rect x="24" y="224" width="8" height="8"/><rect x="32" y="224" width="8" height="8"/><rect x="40" y="224" width="8" height="8"/><rect x="48" y="224" width="8" height="8"/><rect x="56" y="224" width="8" height="8"/><rect x="64" y="224" width="8" height="8"/><rect x="88" y="224" width="8" height="8"/><rect x="112" y="224" width="8" height="8"/><rect x="120" y="224" width="8" height="8"/><rect x="128" y="224" width="8" height="8"/><rect x="152" y="224" width="8" height="8"/><rect x="160" y="224" width="8" height="8"/><rect x="184" y="224" width="8" height="8"/><rect x="208" y="224" width="8" height="8"/><rect x="224" y="224" width="8" height="8"/><rect x="240" y="224" width="8" height="8"/><rect x="248" y="224" width="8" height="8"/><rect x="256" y="224" width="8" height="8"/><rect x="264" y="224" width="8" height="8"/><rect x="16" y="232" width="8" height="8"/><rect x="64" y="232" width="8" height="8"/><rect x="80" y="232" width="8" height="8"/><rect x="88" y="232" width="8" height="8"/><rect x="96" y="232" width="8" height="8"/><rect x="112" y="232" width="8" height="8"/><rect x="120" y="232" width="8" height="8"/><rect x="136" y="232" width="8" height="8"/><rect x="144" y="232" width="8" height="8"/><rect x="152" y="232" width="8" height="8"/><rect x="160" y="232" width="8" height="8"/><rect x="176" y="232" width="8" height="8"/><rect x="184" y="232" width="8" height="8"/><rect x="192" y="232" width="8" height="8"/><rect x="208" y="232" width="8" height="8"/><rect x="240" y="232" width="8" height="8"/><rect x="264" y="232" width="8" height="8"/><rect x="272" y="232" width="8" height="8"/><rect x="16" y="240" width="8" height="8"/><rect x="32" y="240" width="8" height="8"/><rect x="40" y="240" width="8" height="8"/><rect x="48" y="240" width="8" height="8"/><rect x="64" y="240" width="8" height="8"/><rect x="112" y="240" width="8" height="8"/><rect x="120" y="240" width="8" height="8"/><rect x="128" y="240" width="8" height="8"/><rect x="160" y="240" width="8" height="8"/><rect x="176" y="240" width="8" height="8"/><rect x="208" y="240" width="8" height="8"/><rect x="216" y="240" width="8" height="8"/><rect x="224" y="240" width="8" height="8"/><rect x="232" y="240" width="8" height="8"/><rect x="240" y="240" width="8" height="8"/><rect x="248" y="240" width="8" height="8"/><rect x="264" y="240" width="8" height="8"/><rect x="272" y="240" width="8" height="8"/><rect x="16" y="248" width="8" height="8"/><rect x="32" y="248" width="8" height="8"/><rect x="40" y="248" width="8" height="8"/><rect x="48" y="248" width="8" height="8"/><rect x="64" y="248" width="8" height="8"/><rect x="80" y="248" width="8" height="8"/><rect x="88" y="248" width="8" height="8"/><rect x="96" y="248" width="8" height="8"/><rect x="104" y="248" width="8" height="8"/><rect x="112" y="248" width="8" height="8"/><rect x="136" y="248" width="8" height="8"/><rect x="144" y="248" width="8" height="8"/><rect x="152" y="248" width="8" height="8"/><rect x="160" y="248" width="8" height="8"/><rect x="168" y="248" width="8" height="8"/><rect x="184" y="248" width="8" height="8"/><rect x="200" y="248" width="8" height="8"/><rect x="224" y="248" width="8" height="8"/><rect x="240" y="248" width="8" height="8"/><rect x="248" y="248" width="8" height="8"/><rect x="256" y="248" width="8" height="8"/><rect x="16" y="256" width="8" height="8"/><rect x="32" y="256" width="8" height="8"/><rect x="40" y="256" width="8" height="8"/><rect x="48" y="256" width="8" height="8"/><rect x="64" y="256" width="8" height="8"/><rect x="88" y="256" width="8" height="8"/><rect x="96" y="256" width="8" height="8"/><rect x="104" y="256" width="8" height="8"/><rect x="136" y="256" width="8" height="8"/><rect x="144" y="256" width="8" height="8"/><rect x="152" y="256" width="8" height="8"/><rect x="168" y="256" width="8" height="8"/><rect x="176" y="256" width="8" height="8"/><rect x="184" y="256" width="8" height="8"/><rect x="192" y="256" width="8" height="8"/><rect x="200" y="256" width="8" height="8"/><rect x="208" y="256" width="8" height="8"/><rect x="240" y="256" width="8" height="8"/><rect x="248" y="256" width="8" height="8"/><rect x="272" y="256" width="8" height="8"/><rect x="16" y="264" width="8" height="8"/><rect x="64" y="264" width="8" height="8"/><rect x="88" y="264" width="8" height="8"/><rect x="96" y="264" width="8" height="8"/><rect x="112" y="264" width="8" height="8"/><rect x="120" y="264" width="8" height="8"/><rect x="128" y="264" width="8" height="8"/><rect x="152" y="264" width="8" height="8"/><rect x="168" y="264" width="8" height="8"/><rect x="176" y="264" width="8" height="8"/><rect x="184" y="264" width="8" height="8"/><rect x="192" y="264" width="8" height="8"/><rect x="208" y="264" width="8" height="8"/><rect x="216" y="264" width="8" height="8"/><rect x="16" y="272" width="8" height="8"/><rect x="24" y="272" width="8" height="8"/><rect x="32" y="272" width="8" height="8"/><rect x="40" y="272" width="8" height="8"/><rect x="48" y="272" width="8" height="8"/><rect x="56" y="272" width="8" height="8"/><rect x="64" y="272" width="8" height="8"/><rect x="80" y="272" width="8" height="8"/><rect x="104" y="272" width="8" height="8"/><rect x="112" y="272" width="8" height="8"/><rect x="128" y="272" width="8" height="8"/><rect x="136" y="272" width="8" height="8"/><rect x="168" y="272" width="8" height="8"/><rect x="184" y="272" width="8" height="8"/><rect x="192" y="272" width="8" height="8"/><rect x="200" y="272" width="8" height="8"/><rect x="208" y="272" width="8" height="8"/><rect x="216" y="272" width="8" height="8"/><rect x="240" y="272" width="8" height="8"/><rect x="264" y="272" width="8" height="8"/></g></svg>
